<svg width="18" height="15" viewBox="0 0 18 15" fill="none" xmlns="http://www.w3.org/2000/svg">
<path d="M16.1835 4.03756C16.1945 4.18856 16.1945 4.33956 16.1945 4.49156C16.1945 9.09656 12.6885 14.4036 6.28148 14.4036C4.30748 14.4036 2.47348 13.8316 0.930481 12.8396C1.21148 12.8716 1.48148 12.8816 1.77248 12.8816C3.40148 12.8816 4.89948 12.3316 6.09748 11.3936C4.56548 11.3616 3.28248 10.3576 2.84048 8.97656C3.05548 9.00856 3.27148 9.03056 3.49648 9.03056C3.81048 9.03056 4.12348 8.98756 4.41448 8.91256C2.81848 8.58856 1.62048 7.18656 1.62048 5.49356C1.62048 5.48256 1.62048 5.46056 1.62048 5.45056C2.08448 5.70856 2.62348 5.87056 3.19548 5.89256C2.25748 5.26656 1.64248 4.19856 1.64248 2.99156C1.64248 2.34456 1.81548 1.75056 2.11748 1.23256C3.83248 3.34756 6.41048 4.72856 9.30148 4.87856C9.24648 4.61956 9.21448 4.34956 9.21448 4.07956C9.21448 2.16056 10.7685 0.596558 12.6985 0.596558C13.7015 0.596558 14.6075 1.01656 15.2445 1.69656C16.0315 1.54556 16.7855 1.25456 17.4555 0.855558C17.1965 1.66456 16.6465 2.34456 15.9235 2.77456C16.6255 2.69956 17.3045 2.50556 17.9305 2.23556C17.4555 2.92556 16.8625 3.54156 16.1835 4.03756Z" fill="white"/>
</svg>
