<svg width="15" height="17" viewBox="0 0 15 17" fill="none" xmlns="http://www.w3.org/2000/svg">
<path fill-rule="evenodd" clip-rule="evenodd" d="M3.19748 0C3.39848 0.588 3.60648 1.186 3.81448 1.774C4.11848 2.656 4.30848 3.32 4.39448 3.785V6.356H5.34248V3.785L6.49048 0H5.52248L4.87748 2.495L4.20448 0H3.19748ZM7.76148 6.422C8.19848 6.422 8.53048 6.261 8.76748 5.938C8.94848 5.701 9.03248 5.321 9.03248 4.818V3.158C9.03248 2.655 8.94848 2.285 8.76748 2.048C8.52948 1.727 8.19748 1.565 7.76148 1.565C7.33348 1.565 7.00148 1.726 6.76648 2.048C6.58548 2.286 6.50048 2.656 6.50048 3.159V4.819C6.50048 5.322 6.58548 5.692 6.76648 5.939C7.00148 6.261 7.33348 6.422 7.76148 6.422ZM7.35348 2.988C7.35348 2.552 7.48648 2.334 7.76148 2.334C8.04648 2.334 8.16948 2.552 8.16948 2.988V4.98C8.16948 5.417 8.04648 5.644 7.76148 5.644C7.48648 5.644 7.35348 5.416 7.35348 4.98V2.988ZM9.73548 5.36C9.73548 5.701 9.76248 5.928 9.81048 6.071C9.89548 6.309 10.0945 6.422 10.3695 6.422C10.6845 6.422 11.0065 6.232 11.3475 5.834V6.356H12.2105V1.622H11.3475V5.236C11.1575 5.511 10.9775 5.644 10.8075 5.644C10.6935 5.644 10.6275 5.569 10.6085 5.436C10.5985 5.416 10.5985 5.303 10.5985 5.103V1.622H9.73548V5.36ZM13.0935 11.811V12.247H12.2395V11.811C12.2395 11.384 12.3825 11.165 12.6665 11.165C12.9505 11.166 13.0935 11.384 13.0935 11.811ZM14.7435 8.785C14.5725 8.035 13.9555 7.485 13.2255 7.4C11.4795 7.21 9.71448 7.21 7.95948 7.21C6.20448 7.21 4.43948 7.21 2.70348 7.4C1.96548 7.485 1.35748 8.035 1.17748 8.785C0.940481 9.847 0.930481 11.005 0.930481 12.105C0.930481 13.196 0.930481 14.362 1.17748 15.425C1.34848 16.175 1.96548 16.725 2.69548 16.801C4.44048 17 6.20548 17 7.96048 17C9.71548 17 11.4805 17 13.2265 16.801C13.9555 16.725 14.5635 16.175 14.7445 15.425C14.9815 14.363 14.9915 13.196 14.9915 12.105L14.9915 12.091V12.091C14.9905 10.9952 14.9894 9.84249 14.7435 8.785ZM3.92948 9.743H4.94348V8.851H1.98348V9.743H2.98048V15.141H3.92948V9.743ZM7.50548 15.141H6.66048V14.629C6.31848 15.018 5.99648 15.208 5.69248 15.208C5.41848 15.208 5.21848 15.094 5.14248 14.857C5.09448 14.715 5.06648 14.496 5.06648 14.165V10.456H5.91148V13.909C5.91148 14.109 5.91148 14.213 5.92048 14.242C5.94048 14.374 6.00648 14.441 6.11948 14.441C6.29148 14.441 6.47148 14.309 6.66048 14.043V10.457H7.50548V15.141ZM10.6455 14.685C10.7115 14.486 10.7315 14.174 10.7315 13.737V11.868C10.7315 11.431 10.7115 11.119 10.6455 10.929C10.5415 10.578 10.3035 10.398 9.97148 10.398C9.65848 10.398 9.36348 10.568 9.08848 10.91V8.851H8.24548V15.141H9.08848V14.685C9.37348 15.036 9.66848 15.207 9.97148 15.207C10.3035 15.207 10.5415 15.027 10.6455 14.685ZM13.9375 12.959H12.2395V13.784C12.2395 14.221 12.3825 14.438 12.6765 14.438C12.8855 14.438 13.0085 14.325 13.0565 14.097C13.0655 14.05 13.0755 13.86 13.0755 13.518H13.9385V13.642C13.9385 13.917 13.9385 14.107 13.9195 14.192C13.8995 14.381 13.8235 14.552 13.7205 14.704C13.4915 15.036 13.1415 15.207 12.6965 15.207C12.2505 15.207 11.9175 15.046 11.6715 14.723C11.4915 14.495 11.3965 14.125 11.3965 13.622V11.981C11.3965 11.478 11.4825 11.118 11.6625 10.88C11.9095 10.557 12.2415 10.396 12.6785 10.396C13.1065 10.396 13.4375 10.557 13.6835 10.88C13.8555 11.117 13.9405 11.477 13.9405 11.981V12.959H13.9375ZM9.88648 13.803V11.801C9.88648 11.384 9.76248 11.166 9.51648 11.166C9.37348 11.166 9.23148 11.232 9.08848 11.375V14.23C9.23148 14.372 9.37348 14.438 9.51648 14.438C9.76248 14.438 9.88648 14.23 9.88648 13.803Z" fill="white"/>
</svg>
